<?xml version="1.0" encoding="UTF-8" standalone="no"?>
<!-- Created with Inkscape (http://www.inkscape.org/) -->

<svg
   width="100"
   height="100"
   viewBox="0 0 100 100"
   version="1.1"
   id="svg1"
   inkscape:version="1.3 (0e150ed6c4, 2023-07-21)"
   sodipodi:docname="modicon.svg"
   inkscape:export-filename="modicon.png"
   inkscape:export-xdpi="96"
   inkscape:export-ydpi="96"
   xmlns:inkscape="http://www.inkscape.org/namespaces/inkscape"
   xmlns:sodipodi="http://sodipodi.sourceforge.net/DTD/sodipodi-0.dtd"
   xmlns="http://www.w3.org/2000/svg"
   xmlns:svg="http://www.w3.org/2000/svg">
  <sodipodi:namedview
     id="namedview1"
     pagecolor="#ffffff"
     bordercolor="#000000"
     borderopacity="0.25"
     inkscape:showpageshadow="2"
     inkscape:pageopacity="0.0"
     inkscape:pagecheckerboard="0"
     inkscape:deskcolor="#d1d1d1"
     inkscape:document-units="px"
     showgrid="true"
     inkscape:zoom="4.118897"
     inkscape:cx="63.973437"
     inkscape:cy="33.382724"
     inkscape:window-width="2560"
     inkscape:window-height="1371"
     inkscape:window-x="0"
     inkscape:window-y="0"
     inkscape:window-maximized="1"
     inkscape:current-layer="svg1">
    <inkscape:grid
       id="grid1"
       units="px"
       originx="0"
       originy="0"
       spacingx="1"
       spacingy="1"
       empcolor="#0099e5"
       empopacity="0.30196078"
       color="#0099e5"
       opacity="0.14901961"
       empspacing="5"
       dotted="false"
       gridanglex="30"
       gridanglez="30"
       visible="true" />
  </sodipodi:namedview>
  <defs
     id="defs1">
    <filter
       inkscape:label="Button"
       inkscape:menu="Bevels"
       inkscape:menu-tooltip="Soft bevel, slightly depressed middle"
       style="color-interpolation-filters:sRGB;"
       id="filter41"
       x="-0.56801487"
       y="-0.45582075"
       width="2.1360297"
       height="1.9108233">
      <feGaussianBlur
         stdDeviation="4.582708"
         in="SourceAlpha"
         result="result0"
         id="feGaussianBlur38" />
      <feMorphology
         in="SourceAlpha"
         radius="6.6"
         result="result1"
         id="feMorphology38" />
      <feGaussianBlur
         stdDeviation="8.9"
         in="result1"
         id="feGaussianBlur39" />
      <feColorMatrix
         values="1 0 0 0 0 0 1 0 0 0 0 0 1 0 0 0 0 0 0.3 0"
         result="result91"
         id="feColorMatrix39" />
      <feComposite
         in="result0"
         operator="out"
         result="result2"
         in2="result91"
         id="feComposite39" />
      <feGaussianBlur
         stdDeviation="1.7"
         result="result4"
         id="feGaussianBlur40" />
      <feDiffuseLighting
         surfaceScale="10"
         id="feDiffuseLighting40">
        <feDistantLight
           azimuth="225"
           elevation="45"
           id="feDistantLight40" />
      </feDiffuseLighting>
      <feBlend
         in2="SourceGraphic"
         mode="multiply"
         id="feBlend40" />
      <feComposite
         in2="SourceAlpha"
         operator="in"
         result="result3"
         id="feComposite40" />
      <feSpecularLighting
         in="result4"
         surfaceScale="5"
         specularExponent="17.9"
         id="feSpecularLighting41">
        <feDistantLight
           azimuth="225"
           elevation="45"
           id="feDistantLight41" />
      </feSpecularLighting>
      <feComposite
         in2="result3"
         operator="atop"
         id="feComposite41" />
    </filter>
  </defs>
  <path
     id="path22"
     style="fill:#784421;stroke:#552200;stroke-width:4;stroke-dasharray:none"
     d="m 42.383527,4.9965175 -3.791015,1.232421 -0.941406,7.8281255 0.507812,2.042969 2.212891,4.189453 -6.222656,4.521485 -3.300782,-3.402344 -1.785156,-1.113281 -7.734375,-1.523438 -2.34375,3.22461 3.839844,6.886718 1.611328,1.353516 4.253906,2.089844 -2.376953,7.314453 -4.669922,-0.810547 -2.097656,0.148437 -7.154297,3.314453 v 3.984376 l 7.154297,3.314453 2.097656,0.148437 4.669922,-0.810547 2.376953,7.314453 -4.253906,2.089844 -1.611328,1.353516 -3.839844,6.886718 2.34375,3.22461 7.734375,-1.523438 1.785156,-1.113281 3.300782,-3.402344 6.222656,4.521485 -2.212891,4.189453 -0.507812,2.042969 0.941406,7.828125 3.791015,1.232421 5.363282,-5.78125 0.789062,-1.949218 0.671875,-4.691406 h 7.691407 l 0.671874,4.691406 0.789063,1.949218 5.363281,5.78125 3.791016,-1.232421 0.941406,-7.828125 -0.507812,-2.042969 -2.214844,-4.189453 6.222656,-4.521485 3.300781,3.402344 1.785157,1.113281 7.736328,1.523438 2.34375,-3.22461 -3.839844,-6.886718 -1.611328,-1.353516 -4.253906,-2.089844 2.376953,-7.314453 4.669922,0.810547 2.097656,-0.148437 7.154297,-3.314453 v -3.984376 l -7.154297,-3.314453 -2.097656,-0.148437 -4.669922,0.810547 -2.376953,-7.314453 4.253906,-2.089844 1.611328,-1.353516 3.839844,-6.886718 -2.34375,-3.22461 -7.736328,1.523438 -1.785157,1.113281 -3.300781,3.402344 -6.222656,-4.521485 2.214844,-4.189453 0.507812,-2.042969 -0.941406,-7.8281255 -3.791016,-1.232421 -5.363281,5.7812505 -0.789063,1.949218 -0.671874,4.691406 H 49.207746 L 48.535871,12.726986 47.746809,10.777768 Z M 53.053449,35.758236 a 8.5265436,8.5265436 0 0 1 8.527344,8.527344 8.5265436,8.5265436 0 0 1 -8.527344,8.527344 8.5265436,8.5265436 0 0 1 -8.527343,-8.527344 8.5265436,8.5265436 0 0 1 8.527343,-8.527344 z" />
  <g
     inkscape:label="Layer 1"
     inkscape:groupmode="layer"
     id="layer1">
    <g
       id="g25"
       transform="translate(1.2381007,-1.0574357)"
       style="filter:url(#filter41);opacity:0.84229821">
      <path
         style="fill:none;stroke:#220055;stroke-width:12;stroke-linecap:round;stroke-dasharray:none"
         d="m 14.363106,12.622368 c 0,0 6.703119,-1.244506 9.658229,0.450952 2.95511,1.695458 2.554675,2.147219 6.205204,9.632623 3.650529,7.485404 11.361748,28.720063 16.607431,40.309638 5.245683,11.589575 8.282294,19.321846 13.274374,23.568014 4.99208,4.246168 13.369686,3.580107 13.369686,3.580107"
         id="path3"
         sodipodi:nodetypes="czzzzc" />
      <path
         style="fill:none;stroke:#220055;stroke-width:12;stroke-linecap:round;stroke-dasharray:none"
         d="M 41.228612,55.15357 10.383734,90.947532"
         id="path4"
         sodipodi:nodetypes="cc" />
    </g>
  </g>
</svg>
