<?xml version="1.0" encoding="UTF-8" standalone="no"?>
<!-- Created with Inkscape (http://www.inkscape.org/) -->

<svg
   width="32"
   height="32"
   viewBox="0 0 32 32"
   version="1.1"
   id="svg1"
   inkscape:version="1.3.2 (091e20ef0f, 2023-11-25)"
   sodipodi:docname="sealant.svg"
   inkscape:export-filename="sealant.png"
   inkscape:export-xdpi="96"
   inkscape:export-ydpi="96"
   xml:space="preserve"
   xmlns:inkscape="http://www.inkscape.org/namespaces/inkscape"
   xmlns:sodipodi="http://sodipodi.sourceforge.net/DTD/sodipodi-0.dtd"
   xmlns:xlink="http://www.w3.org/1999/xlink"
   xmlns="http://www.w3.org/2000/svg"
   xmlns:svg="http://www.w3.org/2000/svg"><sodipodi:namedview
     id="namedview1"
     pagecolor="#ffffff"
     bordercolor="#000000"
     borderopacity="0.25"
     inkscape:showpageshadow="2"
     inkscape:pageopacity="0.0"
     inkscape:pagecheckerboard="0"
     inkscape:deskcolor="#d1d1d1"
     inkscape:document-units="px"
     showgrid="true"
     inkscape:zoom="18.484375"
     inkscape:cx="13.984784"
     inkscape:cy="14.95858"
     inkscape:window-width="2560"
     inkscape:window-height="1371"
     inkscape:window-x="0"
     inkscape:window-y="0"
     inkscape:window-maximized="1"
     inkscape:current-layer="layer2"><inkscape:grid
       id="grid1"
       units="px"
       originx="0"
       originy="0"
       spacingx="1"
       spacingy="1"
       empcolor="#0099e5"
       empopacity="0.30196078"
       color="#0099e5"
       opacity="0.14901961"
       empspacing="5"
       dotted="false"
       gridanglex="30"
       gridanglez="30"
       visible="true" /></sodipodi:namedview><defs
     id="defs1"><clipPath
       clipPathUnits="userSpaceOnUse"
       id="clipPath97"><rect
         style="fill:#808080;fill-opacity:0.994918;stroke:#53676c;stroke-width:0.865191"
         id="rect98"
         width="24.03109"
         height="28"
         x="51"
         y="-1" /></clipPath><clipPath
       clipPathUnits="userSpaceOnUse"
       id="clipPath97-7"><rect
         style="fill:#808080;fill-opacity:0.994918;stroke:#53676c;stroke-width:0.865191"
         id="rect98-3"
         width="24.03109"
         height="28"
         x="51"
         y="-1" /></clipPath><clipPath
       clipPathUnits="userSpaceOnUse"
       id="clipPath57"><g
         id="use57"
         style="display:inline;mix-blend-mode:normal"
         inkscape:label="Clip Group"><rect
           style="display:none;fill:#808080;stroke-width:0.816497;-inkscape-stroke:none"
           id="rect2"
           width="2"
           height="32"
           x="0"
           y="0"
           inkscape:label="west" /><rect
           style="display:none;opacity:1;mix-blend-mode:normal;fill:#808080;stroke-width:0.816497;-inkscape-stroke:none"
           id="rect3"
           width="32"
           height="2"
           x="0"
           y="30"
           inkscape:label="south" /><rect
           style="display:none;fill:#808080;stroke-width:0.816497;-inkscape-stroke:none"
           id="rect7"
           width="2"
           height="32"
           x="30"
           y="0"
           inkscape:label="east" /><rect
           style="display:none;opacity:1;mix-blend-mode:normal;fill:#808080;stroke-width:0.816497;-inkscape-stroke:none"
           id="rect8"
           width="32"
           height="2"
           x="0"
           y="0"
           inkscape:label="north" /><rect
           style="display:inline;fill:#808080;stroke-width:3.26599;-inkscape-stroke:none"
           id="rect9"
           width="32"
           height="32"
           x="0"
           y="0"
           inkscape:label="full" /></g></clipPath><clipPath
       clipPathUnits="userSpaceOnUse"
       id="clipPath955"><rect
         style="font-variation-settings:normal;opacity:1;vector-effect:none;fill:#84bb97;fill-opacity:0.994918;stroke:none;stroke-width:1.00028;stroke-linecap:butt;stroke-linejoin:miter;stroke-miterlimit:4;stroke-dasharray:none;stroke-dashoffset:0;stroke-opacity:1;-inkscape-stroke:none"
         id="rect955"
         width="32"
         height="32"
         x="0"
         y="0" /></clipPath><linearGradient
       id="swatch955"
       inkscape:swatch="solid"
       inkscape:label="high density"><stop
         style="stop-color:#c1ebd8;stop-opacity:0.99491799;"
         offset="0"
         id="stop955" /></linearGradient><linearGradient
       id="swatch968"
       inkscape:swatch="solid"
       inkscape:label="low density"><stop
         style="stop-color:#c3d2ca;stop-opacity:1;"
         offset="0"
         id="stop968" /></linearGradient><clipPath
       clipPathUnits="userSpaceOnUse"
       id="clipPath955-3"><rect
         style="font-variation-settings:normal;opacity:1;vector-effect:none;fill:#84bb97;fill-opacity:0.994918;stroke:none;stroke-width:1.00028;stroke-linecap:butt;stroke-linejoin:miter;stroke-miterlimit:4;stroke-dasharray:none;stroke-dashoffset:0;stroke-opacity:1;-inkscape-stroke:none"
         id="rect955-1"
         width="32"
         height="32"
         x="0"
         y="0" /></clipPath><linearGradient
       id="swatch955-9"
       inkscape:swatch="solid"
       inkscape:label="high density"><stop
         style="stop-color:#b3b3b3;stop-opacity:1;"
         offset="0"
         id="stop955-4" /></linearGradient><clipPath
       clipPathUnits="userSpaceOnUse"
       id="clipPath57-7"><g
         id="use57-5"
         style="display:inline;mix-blend-mode:normal"
         inkscape:label="Clip Group"><rect
           style="display:none;fill:#808080;stroke-width:0.816497;-inkscape-stroke:none"
           id="rect2-3"
           width="2"
           height="32"
           x="0"
           y="0"
           inkscape:label="west" /><rect
           style="display:none;opacity:1;mix-blend-mode:normal;fill:#808080;stroke-width:0.816497;-inkscape-stroke:none"
           id="rect3-5"
           width="32"
           height="2"
           x="0"
           y="30"
           inkscape:label="south" /><rect
           style="display:none;fill:#808080;stroke-width:0.816497;-inkscape-stroke:none"
           id="rect7-6"
           width="2"
           height="32"
           x="30"
           y="0"
           inkscape:label="east" /><rect
           style="display:none;opacity:1;mix-blend-mode:normal;fill:#808080;stroke-width:0.816497;-inkscape-stroke:none"
           id="rect8-2"
           width="32"
           height="2"
           x="0"
           y="0"
           inkscape:label="north" /><rect
           style="display:inline;fill:#808080;stroke-width:3.26599;-inkscape-stroke:none"
           id="rect9-9"
           width="32"
           height="32"
           x="0"
           y="0"
           inkscape:label="full" /></g></clipPath><clipPath
       clipPathUnits="userSpaceOnUse"
       id="clipPath57-9"><g
         id="use57-3"
         style="display:inline;mix-blend-mode:normal"
         inkscape:label="Clip Group"><rect
           style="display:none;fill:#808080;stroke-width:0.816497;-inkscape-stroke:none"
           id="rect2-6"
           width="2"
           height="32"
           x="0"
           y="0"
           inkscape:label="west" /><rect
           style="display:none;opacity:1;mix-blend-mode:normal;fill:#808080;stroke-width:0.816497;-inkscape-stroke:none"
           id="rect3-0"
           width="32"
           height="2"
           x="0"
           y="30"
           inkscape:label="south" /><rect
           style="display:none;fill:#808080;stroke-width:0.816497;-inkscape-stroke:none"
           id="rect7-62"
           width="2"
           height="32"
           x="30"
           y="0"
           inkscape:label="east" /><rect
           style="display:none;opacity:1;mix-blend-mode:normal;fill:#808080;stroke-width:0.816497;-inkscape-stroke:none"
           id="rect8-6"
           width="32"
           height="2"
           x="0"
           y="0"
           inkscape:label="north" /><rect
           style="display:inline;fill:#808080;stroke-width:3.26599;-inkscape-stroke:none"
           id="rect9-1"
           width="32"
           height="32"
           x="0"
           y="0"
           inkscape:label="full" /></g></clipPath><clipPath
       clipPathUnits="userSpaceOnUse"
       id="clipPath57-0"><g
         id="use57-2"
         style="display:inline;mix-blend-mode:normal"
         inkscape:label="Clip Group"><rect
           style="display:none;fill:#808080;stroke-width:0.816497;-inkscape-stroke:none"
           id="rect2-37"
           width="2"
           height="32"
           x="0"
           y="0"
           inkscape:label="west" /><rect
           style="display:none;opacity:1;mix-blend-mode:normal;fill:#808080;stroke-width:0.816497;-inkscape-stroke:none"
           id="rect3-59"
           width="32"
           height="2"
           x="0"
           y="30"
           inkscape:label="south" /><rect
           style="display:none;fill:#808080;stroke-width:0.816497;-inkscape-stroke:none"
           id="rect7-2"
           width="2"
           height="32"
           x="30"
           y="0"
           inkscape:label="east" /><rect
           style="display:none;opacity:1;mix-blend-mode:normal;fill:#808080;stroke-width:0.816497;-inkscape-stroke:none"
           id="rect8-28"
           width="32"
           height="2"
           x="0"
           y="0"
           inkscape:label="north" /><rect
           style="display:inline;fill:#808080;stroke-width:3.26599;-inkscape-stroke:none"
           id="rect9-97"
           width="32"
           height="32"
           x="0"
           y="0"
           inkscape:label="full" /></g></clipPath><clipPath
       clipPathUnits="userSpaceOnUse"
       id="clipPath57-75"><g
         id="use57-35"
         style="display:inline;mix-blend-mode:normal"
         inkscape:label="Clip Group"><rect
           style="display:none;fill:#808080;stroke-width:0.816497;-inkscape-stroke:none"
           id="rect2-62"
           width="2"
           height="32"
           x="0"
           y="0"
           inkscape:label="west" /><rect
           style="display:none;opacity:1;mix-blend-mode:normal;fill:#808080;stroke-width:0.816497;-inkscape-stroke:none"
           id="rect3-9"
           width="32"
           height="2"
           x="0"
           y="30"
           inkscape:label="south" /><rect
           style="display:none;fill:#808080;stroke-width:0.816497;-inkscape-stroke:none"
           id="rect7-1"
           width="2"
           height="32"
           x="30"
           y="0"
           inkscape:label="east" /><rect
           style="display:none;opacity:1;mix-blend-mode:normal;fill:#808080;stroke-width:0.816497;-inkscape-stroke:none"
           id="rect8-27"
           width="32"
           height="2"
           x="0"
           y="0"
           inkscape:label="north" /><rect
           style="display:inline;fill:#808080;stroke-width:3.26599;-inkscape-stroke:none"
           id="rect9-0"
           width="32"
           height="32"
           x="0"
           y="0"
           inkscape:label="full" /></g></clipPath></defs><g
     inkscape:groupmode="layer"
     id="layer2"
     inkscape:label="function"
     style="display:inline;opacity:0.654;mix-blend-mode:overlay"><rect
       style="fill:#35366e;fill-opacity:0.99943817;stroke:none;stroke-width:4;stroke-linecap:round"
       id="rect2-5"
       width="32"
       height="32"
       x="0"
       y="0"
       clip-path="url(#clipPath57)" /><path
       style="fill:none;fill-opacity:0.999438;stroke:#5561a7;stroke-width:1;stroke-linecap:round;stroke-dasharray:none"
       d="m -14.713865,-12.53825 c -0.05783,-0.007 -0.166455,-0.07897 -0.1735,-0.02113 -0.007,0.05783 0.115485,0.01579 0.1735,0.02113 0.141584,0.01304 0.283148,0.04035 0.42519,0.03402 0.244025,-0.01087 0.484218,-0.06725 0.727811,-0.08538 0.454335,-0.03381 0.910055,-0.0454 1.364962,-0.07037 1.312328,-0.07203 2.7248974,-0.287162 4.0204985,0.05452 0.3084208,0.08134 0.6115283,0.194483 0.8920119,0.346365 0.040635,0.022 -0.0124,0.09411 0,0.138631 0.1014765,0.364285 0.010648,-0.222934 0.1081995,0.272823 0.010581,0.05377 -0.03417,0.121565 0,0.164413 0.040635,0.05096 0.1136167,0.07324 0.1464497,0.129543 0.038139,0.0654 0.032153,0.148362 0.05727,0.21978 0.1525586,0.433794 0.1383421,0.36826 0.704142,0.579671 0.5047521,0.1886 1.0418984,0.278603 1.5517752,0.452874 2.0631912,0.7051772 -0.3312072,-0.05706 1.3592561,0.5255703 0.3959521,0.1364677 0.8067201,0.2267094 1.2037191,0.3601014 0.292152,0.098164 0.575034,0.2233081 0.869188,0.3153001 0.1956,0.061171 0.40379,0.077584 0.597845,0.1434911 0.06638,0.022545 0.109415,0.090615 0.173711,0.1185546 0.0303,0.013167 0.06963,-0.0149 0.09911,0 0.0149,0.00753 -0.01218,0.038671 0,0.050085 0.01301,0.012184 0.03922,-0.010702 0.05347,0 0.07633,0.057326 0.05976,0.184711 0.116019,0.2618343 0.100192,0.1373511 0.54908,0.3499683 0.465765,0.4729501 -0.192253,0.2837847 -0.558255,0.3119026 -0.82798,0.4617498 -0.0295,0.016386 0.07121,-0.015407 0.101226,0 0.04711,0.02418 0.06521,0.090223 0.114116,0.1105233 0.387965,0.161039 0.845941,0.158743 1.247464,0.250846 0.260984,0.05986 0.497923,0.200106 0.755917,0.271766 0.225248,0.06256 0.470038,0.06169 0.690617,0.11306 0.23171,0.05397 0.447244,0.165681 0.678572,0.22126 0.283673,0.06816 0.296474,0.02638 0.543111,0.11306 0.354226,0.124488 0.696241,0.277599 1.059805,0.391589 C 4.723584,-6.079741 4.861792,-6.039871 5,-6 c 0.07974,0.03966 0.154765,0.09072 0.239222,0.118977 0.544951,0.182318 -0.0035,-0.117204 0.650043,0.173289 0.109589,0.04871 0.196086,0.144319 0.309383,0.183643 0.211085,0.07327 0.4377,0.09147 0.653212,0.150465 0.25049,0.06856 0.32937,0.184931 0.48415,0.222951 0.03386,0.0083 0.06974,0 0.104607,0 0.102071,0.01937 0.206432,0.02917 0.306213,0.05811 0.106075,0.03077 0.203762,0.08595 0.308749,0.120245 0.137481,0.04491 0.278529,0.07805 0.417794,0.117075 0.193435,0.0479 0.390832,0.08196 0.580304,0.143703 0.16893,0.05504 0.322937,0.150245 0.491758,0.205622 0.278279,0.09128 0.572793,0.130649 0.847,0.233517 1.186837,0.613706 0.03785,0.07795 1.092138,0.43005 0.05264,0.01758 0.108522,0.09625 0.165047,0.114328 0.03415,0.01092 0.07356,-0.01138 0.107565,0 0.02418,0.0081 0.02882,0.05074 0.0541,0.0541 0.07792,0.01035 -0.09106,-0.133896 -0.158073,-0.174979 -0.211477,-0.129652 -0.692225,-0.345935 -0.524091,-0.528318 0.01127,-0.01222 0.03333,-0.0017 0.04987,0 0.186145,0.0189 0.372913,0.08974 0.557904,0.06171 0.190153,-0.02881 0.686107,-0.39584 0.769231,-0.545014 0.05404,-0.09698 0,-0.222034 0,-0.33305 0,-0.09207 0,-0.184137 0,-0.276205 0,-0.422743 -0.02564,-0.734029 -0.110525,-1.150042 -0.0069,-0.03375 0.01366,-0.07172 0,-0.103339 -0.03638,-0.08423 -0.09385,-0.158667 -0.126796,-0.244294 -0.05473,-0.142259 -0.07243,-0.297938 -0.135249,-0.436814 -0.05564,-0.122997 -0.158402,-0.2203272 -0.217033,-0.3419274 -0.03916,-0.081218 0.01024,-0.1809156 0,-0.2704987 -0.02593,-0.2268737 -0.10539,-0.6180736 -0.18808,-0.8150873 -0.218397,-0.5203397 -0.263113,-0.5480838 -0.6306,-0.8943364 -0.06679,-0.062933 -0.150695,-0.1083394 -0.209003,-0.1792054 -0.01495,-0.018174 -0.01361,-0.3992138 -0.116653,-0.5420538 -0.443441,-0.614708 -1.21325,-0.589882 -1.85989,-0.840237 -0.06352,-0.02459 0.0334,-0.144984 0,-0.204353 -0.069949,-0.124349 -0.158527,-0.243481 -0.270921,-0.331361 -0.454288,-0.355206 -1.00271,-0.404775 -1.530009,-0.559383 -0.02447,-0.0072 -0.03375,-0.03873 -0.0541,-0.0541 -0.345907,-0.261345 -0.525792,-0.247298 -1.102704,-0.361158 -1.704496,-0.3364 -2.125456,-0.328031 -3.957735,-0.394759 -0.345228,-0.01257 -0.75602,-0.148132 -1.034869,0.05579 -0.01439,0.01052 0.03564,0 0.05347,0 0.03593,0 0.105941,0.03588 0.107777,0 4.11e-4,-0.008 -0.117288,-0.160103 -0.05177,-0.195266 0.102306,-0.05491 0.217953,-0.0813 0.322062,-0.132714 0.337646,-0.166735 0.626735,-0.437931 0.972316,-0.58918 0.132978,-0.0582 0.281144,-0.07624 0.414413,-0.13377 0.1211,-0.05228 0.224769,-0.139502 0.344886,-0.193998 0.411116,-0.186521 0.90319,-0.245611 1.3377,-0.352705 1.10897,-0.27333 2.162295,-0.373691 3.275571,-0.11623 0.396334,0.09166 0.567653,0.205012 0.979924,0.349958 1.169476,0.411162 0.912747,0.273791 2.17033,0.679205 0.570253,0.183836 1.343733,0.588172 1.976331,0.499155 0.235324,-0.03311 0.443146,-0.175063 0.642857,-0.289096 0.547417,-0.312569 0.791845,-0.504467 1.27705,-0.899831 0.113109,-0.09216 0.259265,-0.141363 0.364328,-0.242603 0.128707,-0.124024 0.454279,-0.636124 0.533812,-0.761623 0.05113,-0.08069 0.05343,-0.19468 0.125106,-0.257819 0.06537,-0.05758 0.170645,-0.03932 0.250845,-0.07333 0.02389,-0.01013 0.0296,-0.04743 0.0541,-0.056 0.159056,-0.05568 0.153254,0.118123 0.274514,0.162933 0.106097,0.03921 0.222656,0.04079 0.334954,0.05431 0.791255,0.09529 1.612528,-0.07127 2.406804,0 0.301585,0.02706 0.599288,0.08719 0.899197,0.128909 0.08092,0.01125 0.812806,0.140637 0.933855,0.06614 0.02105,-0.01295 0.03053,-0.04327 0.0541,-0.05072 0.08774,-0.02771 0.282152,0 0.368131,0 0.03572,0 0.142851,-6.92e-4 0.107143,0 -0.06854,0.0013 -0.13709,0.002 -0.20563,0.003"
       id="path1" /><use
       id="use18"
       inkscape:spray-origin="#path1"
       xlink:href="#path1"
       transform="rotate(150.01814,13.540381,-1.6685172)" /><use
       id="use19"
       inkscape:spray-origin="#path1"
       xlink:href="#path1"
       transform="rotate(71.996956,-4.9626222,25.058029)" /><use
       id="use22"
       inkscape:spray-origin="#path1"
       xlink:href="#path1"
       transform="rotate(64.844969,-26.444408,16.955383)" /><use
       id="use23"
       inkscape:spray-origin="#path1"
       xlink:href="#path1"
       transform="rotate(-57.79855,45.296368,-6.209735)" /><path
       style="fill:none;fill-opacity:0.999438;stroke:#5561a7;stroke-width:1;stroke-linecap:round;stroke-dasharray:none"
       d="M 0,6 C 0.13588335,6.0409975 0.27528685,6.071757 0.40765004,6.1229924 1.6203884,6.5924211 2.815845,7.1063717 4.0340237,7.5614962 c 1.488453,0.5561019 3.0312509,0.9698343 4.4921809,1.5946746 0.73122,0.312743 1.4740614,0.6671003 2.0581154,1.2068892 0.361502,0.334105 -0.392322,0.760493 -0.7248525,1.189349 -0.096046,0.123868 0.074458,0.737818 0.1745565,0.83284 0.117183,0.111241 0.431739,0.193866 0.588123,0.224852 0.05307,0.01051 0.12465,-0.03885 0.162299,0 C 10.887795,12.716745 10.928149,12.870034 11,13"
       id="path23" /><path
       style="fill:none;fill-opacity:0.999438;stroke:#5561a7;stroke-width:1;stroke-linecap:round;stroke-dasharray:none"
       d="m 12,3 c 0.217878,0.4803466 0.509811,0.933577 0.653635,1.4410397 0.505393,1.7832051 0.832637,3.6124536 1.287827,5.4091294 0.239861,0.9467489 0.590349,1.8649599 0.796915,2.8195269 0.194777,0.900086 0.154057,1.912794 0.154057,2.829881 0,0.700747 -0.06953,0.04512 0.164202,0.561919 0.02755,0.06091 0.01757,0.26505 0,0.20055 C 15.033152,16.175821 15.018879,16.087349 15,16"
       id="path24" /><path
       style="fill:none;fill-opacity:0.999438;stroke:#5561a7;stroke-width:1;stroke-linecap:round;stroke-dasharray:none"
       d="m 4,-1 c 1.409e-4,-0.086433 -0.071919,-0.211998 4.227e-4,-0.2592984 0.088574,-0.057914 0.2178417,0.00773 0.3127641,0.054522 0.7532902,0.37130038 1.5208743,0.72643667 2.2189349,1.19336433 C 6.6351994,0.05753623 9.8048665,1.7542069 9.5900254,3.1458157 9.4271327,4.2009339 8.5700685,4.8889568 7.8013525,5.4723161 7.635962,5.5978268 7.1420881,5.6640889 7.2825444,5.8169907 7.370056,5.9122565 8.3710818,6.2555193 8.4287828,6.2789518 8.5349887,6.3220823 8.6784295,6.5003762 8.7472527,6.4087067 8.8434251,6.2806094 8.9157509,6.1362356 9,6"
       id="path27" /><path
       style="fill:none;fill-opacity:0.999438;stroke:#5561a7;stroke-width:1;stroke-linecap:round;stroke-dasharray:none"
       d="m 30,36 c -1.39497,-0.81044 -2.837253,-1.544429 -4.184911,-2.431319 -1.984892,-1.30625 -3.777158,-2.898067 -5.802198,-4.141166 -1.343675,-0.824834 -2.860625,-1.328115 -4.267329,-2.040152 -0.687868,-0.348182 -1.340203,-0.762544 -2.013102,-1.138842 -0.934789,-0.522753 -0.87214,-0.38162 -2.475698,-0.880812 -0.278801,-0.08679 -0.561584,-0.160548 -0.839814,-0.249154 -0.03963,-0.01262 -0.07084,-0.0541 -0.112426,-0.0541 -0.01041,0 0.02196,0.258715 0,0.268808 -0.17057,0.0784 -0.9537303,0.222685 -0.7611999,0.609256 0.00801,0.01608 0.036066,-0.0022 0.053888,0 C 9.7317722,25.959456 9.8657368,25.98084 10,26"
       id="path29" /><path
       style="fill:none;fill-opacity:0.999438;stroke:#5561a7;stroke-width:1;stroke-linecap:round;stroke-dasharray:none"
       d="M -3,0 C -2.2143267,1.65546 -3.9142432,-1.7367841 0.15595943,2.0293745 0.5508895,2.3948033 0.50678287,3.0485433 0.63102282,3.5720626 1.4074861,6.8439045 1.112712,5.936583 -2.3901099,9.3617921 -3.3476542,10.29812 -4.5423951,10.965544 -5.5202874,11.8806 c -0.164444,0.153877 -0.2382976,0.407293 -0.2375317,0.632502 0.00141,0.414818 0.9501597,1.197691 1.043956,1.267963 2.5046631,1.876502 1.3858939,0.659093 4.70097214,2.418428 0.68050958,0.361151 1.29004846,0.843908 1.91103126,1.299873 1.8933909,1.390247 -0.00561,0.274072 0.9854184,0.686391 0.032194,0.01339 -0.069738,0 -0.1046069,0 -0.026979,0 0.061796,0.01901 0.080938,0 C 2.9149177,18.131102 2.9532967,18.061919 3,18"
       id="path31" /><path
       style="fill:none;fill-opacity:0.999438;stroke:#5561a7;stroke-width:1;stroke-linecap:round;stroke-dasharray:none"
       d="m 24,-7 c 0.195478,0.2478867 0.43138,0.468673 0.586433,0.7436602 0.160446,0.2845525 0.06157,0.6522462 0.13377,0.9708368 0.369848,1.6319428 0.29875,0.2371977 0.353339,2.3518597 0.05838,2.2613924 -0.06329,4.527643 0,6.7888842 0.145666,5.2045004 0.02829,-0.4533479 0.442308,4.195055 0.04656,0.5227966 0,1.0497323 0,1.5745984 0,1.9800897 0.102215,0.5652007 -0.25634,2.3043107 -0.03777,0.183205 -0.02663,0.374971 -0.07122,0.556636 -0.0351,0.142982 -0.124859,0.267948 -0.165891,0.409341 C 25.009767,12.938714 25.055378,13.275843 25,13"
       id="path33" /><path
       style="fill:none;fill-opacity:0.999438;stroke:#5561a7;stroke-width:1;stroke-linecap:round;stroke-dasharray:none"
       d="m 14,4 c 0.06741,0.4978867 -0.0034,1.0352222 0.20224,1.4936602 0.154762,0.3450847 0.490162,0.5987715 0.819527,0.7846576 1.641812,0.9266028 2.780894,1.284092 4.485629,1.7354185 0.298707,0.079082 0.125491,0.029798 0.1623,-0.049873 C 19.765543,7.7564018 19.660758,7.7812245 20,8"
       id="path34" /><path
       style="fill:none;fill-opacity:0.999438;stroke:#5561a7;stroke-width:1;stroke-linecap:round;stroke-dasharray:none"
       d="m 12,20 c 0.994648,1.518854 0.290926,0.979506 1.893914,1.492181 0.03844,0.01229 0.09995,0.01481 0.108199,0.05431 C 14.033026,21.694468 14.000704,21.848831 14,22"
       id="path35" /><path
       style="fill:none;fill-opacity:0.999438;stroke:#5561a7;stroke-width:1;stroke-linecap:round;stroke-dasharray:none"
       d="m 3,30 c 0.095895,-0.828108 -0.054194,-0.125441 1.8053677,-0.611369 1.7697847,-0.462469 3.360618,-1.023799 5.1855452,-1.231404 0.4371751,-0.04973 0.8560231,0.103834 1.2823331,0.151099 0.118113,0.01309 0.239875,-0.02277 0.356509,0 0.08689,0.01696 0.156861,0.08272 0.2388,0.11623 0.22738,0.09301 0.94481,0.322084 1.070794,0.367075 0.200064,0.07145 0.391432,0.167527 0.594886,0.228656 0.177608,0.05336 0.363699,0.07311 0.544167,0.115808 0.05556,0.01314 0.203124,0.09338 0.162934,0.05283 C 14.169421,29.116362 14.080445,29.062975 14,29"
       id="path36" /><path
       style="fill:none;fill-opacity:0.999438;stroke:#5561a7;stroke-width:1;stroke-linecap:round;stroke-dasharray:none"
       d="m 22,33 c 0.0078,-0.307457 -0.603262,-4.716956 0.886729,-5.694421 2.070527,-1.358309 2.170076,1.378872 2.79628,-2.62891 0.126394,-0.808933 -0.136807,-1.638109 -0.327768,-2.434277 -0.155211,-0.647113 -0.621737,-0.35491 -0.965342,-0.674133 -0.09844,-0.09145 -0.163781,-0.214851 -0.262891,-0.305579 -0.790573,-0.723716 0.0026,0.08971 -0.701184,-0.475275 -0.03167,-0.02542 -0.01798,-0.127183 -0.05431,-0.109045 C 23.224962,20.751526 23.123838,20.892787 23,21"
       id="path37" /><path
       style="fill:none;fill-opacity:0.999438;stroke:#5561a7;stroke-width:1;stroke-linecap:round;stroke-dasharray:none"
       d="M 7,-4 C 7.1098944,-3.1404951 7.1949627,-3.5167587 6.2068893,-2.6339814 5.1860547,-1.7219343 4.6551009,-1.5995549 3.7935334,-0.37235841 2.7801222,1.0711206 2.8059621,2.2992362 2.512891,4.0688926 2.1980786,5.9698295 2.0482061,6.4620052 2.1652578,8.3332629 c 0.042569,0.6805379 0.1816828,1.3517876 0.2521133,2.0300081 0.2644207,2.546278 0.2197802,1.964507 0.2197802,4.051987 0,0.566249 -0.075995,1.288941 0,1.86623 0.00999,0.07587 0.046675,0.146437 0.058115,0.222105 0.00809,0.05349 -0.019662,0.111898 0,0.162299 0.019199,0.04921 0.091403,0.06558 0.1084108,0.115596 0.00783,0.02301 -0.031902,0.03727 -0.051564,0.05156 -0.3404781,0.247509 -1.1328714,0.244752 -1.54776,0.19273 -0.1573597,-0.01973 -0.30404891,-0.09034 -0.45583259,-0.136306 -0.0577858,-0.0175 -0.22814056,-0.07839 -0.1728656,-0.0541 C 0.71455217,16.896421 0.8585517,16.945125 1,17"
       id="path38" /><path
       style="fill:none;fill-opacity:0.999438;stroke:#5561a7;stroke-width:1;stroke-linecap:round;stroke-dasharray:none"
       d="M 4,37 C 4.1247535,36.857284 4.3345995,36.757211 4.3742604,36.571851 4.4182896,36.366075 4.2749916,36.162846 4.2227388,35.959003 4.1275527,35.587672 4.0071566,35.222252 3.9319527,34.846365 3.8477161,34.425332 3.8293753,33.992885 3.7451395,33.571851 3.6251105,32.971914 3.4688142,32.379735 3.319738,31.786348 3.0221044,30.60164 2.8763336,29.638151 2.2240068,28.618343 2.0363424,28.32496 1.7981076,28.059483 1.5295858,27.837701 0.86145775,27.285868 0.80264575,27.606542 0.36559594,27.039307 c -0.0839959,-0.03501 0.0322533,-0.128799 0,-0.178994 -0.011478,-0.01786 -0.24722078,-0.06283 -0.29501268,-0.110947 -0.07735067,-0.07787 -0.13145725,-0.17616 -0.20456466,-0.25803 -0.12573842,-0.14081 -0.29865301,-0.244904 -0.39137786,-0.409341 C -0.63743328,25.883245 -0.6485932,25.641744 -0.73267117,25.429628 -0.77525152,25.322204 -0.91811897,25.10289 -1,25"
       id="path39" /><path
       style="fill:none;fill-opacity:0.999438;stroke:#5561a7;stroke-width:1;stroke-linecap:round;stroke-dasharray:none"
       d="m 35,31 c -0.50833,0.127072 -1.109096,-1.707606 -1.135038,-1.791209 -0.09156,-0.295065 -0.09859,-0.610494 -0.169273,-0.911242 -0.07106,-0.302342 -0.17389,-0.59636 -0.255495,-0.896027 -0.807232,-2.9643 0.07427,0.313061 -0.637574,-2.85503 -0.323079,-1.437891 -0.18024,-0.468607 -0.429628,-1.500634 -0.06354,-0.262942 0.02915,-0.703428 0,-0.930051 -0.0664,-0.516302 -0.147918,-0.528369 -0.221682,-0.899408 -0.03049,-0.153362 0.005,-0.2218 -0.0579,-0.39962 -0.12829,-0.362541 -0.326601,-0.731909 -0.411243,-1.111369 -0.0654,-0.293183 -0.146548,-0.777636 -0.246407,-1.028529 -0.07494,-0.188287 -0.22983,-0.335394 -0.320372,-0.516695 -0.218838,-0.438196 -0.02351,-0.462333 -0.123204,-0.751902 -0.03763,-0.1093 -0.115883,-0.200874 -0.159552,-0.307904 -0.04629,-0.113451 -0.111759,-0.663253 -0.0579,-0.75803 C 30.842215,16.223579 30.924908,16.114117 31,16"
       id="path40" /><path
       style="fill:none;fill-opacity:0.999438;stroke:#5561a7;stroke-width:1;stroke-linecap:round;stroke-dasharray:none"
       d="m 34,3 c 0.06199,0.3562271 0.350705,0.7468084 0.185968,1.0686813 -0.274672,0.5366707 -0.911472,0.7899314 -1.349324,1.2043534 -0.324773,0.307394 -0.699122,0.581337 -0.937236,0.9598478 -0.19525,0.3103737 -0.0058,0.5906833 -0.06023,0.8964497 -0.0028,0.015812 -0.03373,-0.007 -0.04818,0 -0.0692,0.033499 -0.135859,0.07315 -0.19759,0.1189772 C 31.416486,7.3796505 31.343923,7.4957271 31.3041,7.6948436 31.265925,7.8857155 31.25,8.0373089 31.25,8.2358411 c 0,0.071922 0.04228,0.2739476 0,0.215765 C 31.148854,8.3124127 31.083333,8.1505354 31,8"
       id="path41" /><rect
       style="fill:none;fill-opacity:0.999438;stroke:#5561a7;stroke-width:1;stroke-linecap:round;stroke-dasharray:none"
       id="rect41"
       width="1"
       height="1"
       x="-10"
       y="5" /><use
       id="use41"
       inkscape:spray-origin="#rect41"
       xlink:href="#rect41"
       transform="rotate(-122.85193,5.6361682,0.63768871)" /><use
       id="use42"
       inkscape:spray-origin="#rect41"
       xlink:href="#rect41"
       transform="rotate(168.39026,-1.6147159,11.592798)" /><use
       id="use43"
       inkscape:spray-origin="#rect41"
       xlink:href="#rect41"
       transform="rotate(-97.657325,12.173319,-2.2130083)" /><use
       id="use44"
       inkscape:spray-origin="#rect41"
       xlink:href="#rect41"
       transform="rotate(131.35235,-3.2705958,19.138057)" /><use
       id="use45"
       inkscape:spray-origin="#rect41"
       xlink:href="#rect41"
       transform="rotate(-109.94234,6.8651156,5.3578224)" /><use
       id="use46"
       inkscape:spray-origin="#rect41"
       xlink:href="#rect41"
       transform="rotate(115.07191,0.89494416,24.819413)" /><use
       id="use47"
       inkscape:spray-origin="#rect41"
       xlink:href="#rect41"
       transform="rotate(49.763744,-16.436055,25.851868)" /><use
       id="use48"
       inkscape:spray-origin="#rect41"
       xlink:href="#rect41"
       transform="rotate(-37.298109,6.1908014,-43.902149)" /><use
       id="use49"
       inkscape:spray-origin="#rect41"
       xlink:href="#rect41"
       transform="rotate(-163.43944,5.7218388,3.9253187)" /><use
       id="use50"
       inkscape:spray-origin="#rect41"
       xlink:href="#rect41"
       transform="rotate(163.63071,3.6386009,5.7874119)" /><use
       id="use51"
       inkscape:spray-origin="#rect41"
       xlink:href="#rect41"
       transform="rotate(-68.688055,3.5528511,-24.948042)" /><use
       id="use52"
       inkscape:spray-origin="#rect41"
       xlink:href="#rect41"
       transform="rotate(156.67868,4.9848932,10.94898)" /><use
       id="use53"
       inkscape:spray-origin="#rect41"
       xlink:href="#rect41"
       transform="rotate(-7.5420888,-15.542377,-204.66081)" /><use
       id="use54"
       inkscape:spray-origin="#rect41"
       xlink:href="#rect41"
       transform="rotate(-115.39305,7.8921881,-4.3788135)" /><use
       id="use55"
       inkscape:spray-origin="#rect41"
       xlink:href="#rect41"
       transform="rotate(29.267895,-3.8522902,67.30866)" /><use
       id="use56"
       inkscape:spray-origin="#rect41"
       xlink:href="#rect41"
       transform="rotate(-47.265302,42.653913,-19.020219)" /><use
       id="use58"
       inkscape:spray-origin="#rect41"
       xlink:href="#rect41"
       transform="rotate(-96.763166,14.229352,1.5952379)" /><use
       id="use59"
       inkscape:spray-origin="#rect41"
       xlink:href="#rect41"
       transform="rotate(-156.53518,7.1492251,6.8312734)" /><use
       id="use60"
       inkscape:spray-origin="#rect41"
       xlink:href="#rect41"
       transform="rotate(26.79972,0.2233003,65.653981)" /><use
       id="use61"
       inkscape:spray-origin="#rect41"
       xlink:href="#rect41"
       transform="rotate(-94.337028,8.6658664,-4.038221)" /><use
       id="use62"
       inkscape:spray-origin="#rect41"
       xlink:href="#rect41"
       transform="rotate(-165.83552,0.53190906,10.404077)" /><use
       id="use63"
       inkscape:spray-origin="#rect41"
       xlink:href="#rect41"
       transform="rotate(176.44233,-0.52390962,13.267614)" /><use
       id="use64"
       inkscape:spray-origin="#rect41"
       xlink:href="#rect41"
       transform="rotate(10.093829,-96.667705,64.218016)" /><use
       id="use65"
       inkscape:spray-origin="#rect41"
       xlink:href="#rect41"
       transform="rotate(143.25847,-7.5729526,18.695941)" /><use
       id="use66"
       inkscape:spray-origin="#rect41"
       xlink:href="#rect41"
       transform="rotate(69.510008,-19.347597,33.621836)" /><use
       id="use67"
       inkscape:spray-origin="#rect41"
       xlink:href="#rect41"
       transform="rotate(-104.30462,4.9309543,12.362403)" /><use
       id="use68"
       inkscape:spray-origin="#rect41"
       xlink:href="#rect41"
       transform="rotate(87.482037,-6.3050952,10.407215)" /><use
       id="use69"
       inkscape:spray-origin="#rect41"
       xlink:href="#rect41"
       transform="rotate(-38.149814,-11.773122,-22.531081)" /><use
       id="use70"
       inkscape:spray-origin="#rect41"
       xlink:href="#rect41"
       transform="rotate(94.724426,5.4059486,6.1624331)" /><use
       id="use71"
       inkscape:spray-origin="#rect41"
       xlink:href="#rect41"
       transform="rotate(131.32649,3.1257597,2.6495951)" /><use
       id="use72"
       inkscape:spray-origin="#rect41"
       xlink:href="#rect41"
       transform="rotate(60.040629,0.79673809,13.713628)" /><use
       id="use73"
       inkscape:spray-origin="#rect41"
       xlink:href="#rect41"
       transform="rotate(24.778448,2.6103218,56.320144)" /><use
       id="use74"
       inkscape:spray-origin="#rect41"
       xlink:href="#rect41"
       transform="rotate(-0.5791105,376.97083,-2888.482)" /><use
       id="use75"
       inkscape:spray-origin="#rect41"
       xlink:href="#rect41"
       transform="rotate(84.348766,1.1111307,28.404958)" /><use
       id="use76"
       inkscape:spray-origin="#rect41"
       xlink:href="#rect41"
       transform="rotate(-131.21709,7.691194,3.3889631)" /><use
       id="use77"
       inkscape:spray-origin="#rect41"
       xlink:href="#rect41"
       transform="rotate(25.705809,5.3683855,42.837679)" /><use
       id="use78"
       inkscape:spray-origin="#rect41"
       xlink:href="#rect41"
       transform="rotate(-145.99172,-1.2058745,0.56436691)" /><use
       id="use79"
       inkscape:spray-origin="#rect41"
       xlink:href="#rect41"
       transform="rotate(-174.64992,-1.6274164,8.9678352)" /><use
       id="use80"
       inkscape:spray-origin="#rect41"
       xlink:href="#rect41"
       transform="rotate(-140.75293,0.51877301,-0.13686503)" /><use
       id="use81"
       inkscape:spray-origin="#rect41"
       xlink:href="#rect41"
       transform="rotate(-4.4374615,134.47049,-444.88857)" /><use
       id="use82"
       inkscape:spray-origin="#rect41"
       xlink:href="#rect41"
       transform="rotate(-162.54971,8.0099868,13.27081)" /><use
       id="use83"
       inkscape:spray-origin="#rect41"
       xlink:href="#rect41"
       transform="rotate(116.85912,3.1455268,27.080663)" /><use
       id="use84"
       inkscape:spray-origin="#rect41"
       xlink:href="#rect41"
       transform="rotate(-84.616474,16.81748,-0.67066233)" /><use
       id="use85"
       inkscape:spray-origin="#rect41"
       xlink:href="#rect41"
       transform="rotate(-143.62303,6.3828128,7.1524581)" /><use
       id="use86"
       inkscape:spray-origin="#rect41"
       xlink:href="#rect41"
       transform="rotate(-119.07299,6.9658697,-0.61355318)" /><use
       id="use87"
       inkscape:spray-origin="#rect41"
       xlink:href="#rect41"
       transform="rotate(-68.39636,12.278859,0.53141777)" /><use
       id="use88"
       inkscape:spray-origin="#rect41"
       xlink:href="#rect41"
       transform="rotate(38.455386,-40.017785,20.06046)" /><use
       id="use89"
       inkscape:spray-origin="#rect41"
       xlink:href="#rect41"
       transform="rotate(-127.22741,-0.41543708,11.422592)" /><use
       id="use90"
       inkscape:spray-origin="#rect41"
       xlink:href="#rect41"
       transform="rotate(-87.450676,9.6360766,6.2186728)" /><use
       id="use91"
       inkscape:spray-origin="#rect41"
       xlink:href="#rect41"
       transform="rotate(177.8733,-3.253923,12.457841)" /><use
       id="use92"
       inkscape:spray-origin="#rect41"
       xlink:href="#rect41"
       transform="rotate(48.749768,-11.214795,28.281445)" /><use
       id="use93"
       inkscape:spray-origin="#rect41"
       xlink:href="#rect41"
       transform="rotate(-178.20902,-3.9083585,5.3537671)" /><use
       id="use94"
       inkscape:spray-origin="#rect41"
       xlink:href="#rect41"
       transform="rotate(-98.951994,1.7543059,-1.449019)" /><use
       id="use95"
       inkscape:spray-origin="#rect41"
       xlink:href="#rect41"
       transform="rotate(-40.433828,3.6228321,-17.733353)" /><use
       id="use96"
       inkscape:spray-origin="#rect41"
       xlink:href="#rect41"
       transform="rotate(131.89184,0.26837274,17.642526)" /><use
       id="use97"
       inkscape:spray-origin="#rect41"
       xlink:href="#rect41"
       transform="rotate(161.82787,4.2908722,12.333291)" /><use
       id="use98"
       inkscape:spray-origin="#rect41"
       xlink:href="#rect41"
       transform="rotate(174.74048,-0.34396505,15.084285)" /><use
       id="use99"
       inkscape:spray-origin="#rect41"
       xlink:href="#rect41"
       transform="rotate(-167.8707,-4.3182076,17.036348)" /><use
       id="use100"
       inkscape:spray-origin="#rect41"
       xlink:href="#rect41"
       transform="rotate(77.790226,-20.09692,18.379018)" /><use
       id="use101"
       inkscape:spray-origin="#rect41"
       xlink:href="#rect41"
       transform="rotate(113.47729,-9.7220711,16.388943)" /><use
       id="use102"
       inkscape:spray-origin="#rect41"
       xlink:href="#rect41"
       transform="rotate(-130.21574,2.2896243,7.1090081)" /><use
       id="use103"
       inkscape:spray-origin="#rect41"
       xlink:href="#rect41"
       transform="rotate(-138.25285,3.4459259,13.190879)" /><use
       id="use104"
       inkscape:spray-origin="#rect41"
       xlink:href="#rect41"
       transform="rotate(-129.52936,1.6306173,10.461151)" /><use
       id="use105"
       inkscape:spray-origin="#rect41"
       xlink:href="#rect41"
       transform="rotate(-30.505745,29.233711,-4.2913715)" /><use
       id="use106"
       inkscape:spray-origin="#rect41"
       xlink:href="#rect41"
       transform="rotate(179.62666,-3.3146753,15.857795)" /><use
       id="use107"
       inkscape:spray-origin="#rect41"
       xlink:href="#rect41"
       transform="rotate(129.22141,-9.5996732,14.646596)" /><use
       id="use108"
       inkscape:spray-origin="#rect41"
       xlink:href="#rect41"
       transform="rotate(69.117426,-4.1826223,9.1004675)" /><use
       id="use109"
       inkscape:spray-origin="#rect41"
       xlink:href="#rect41"
       transform="rotate(164.17738,-4.2399391,8.8937177)" /><use
       id="use110"
       inkscape:spray-origin="#rect41"
       xlink:href="#rect41"
       transform="rotate(112.0056,-3.7173133,10.095235)" /><use
       id="use111"
       inkscape:spray-origin="#rect41"
       xlink:href="#rect41"
       transform="rotate(149.89197,1.303453,7.5684843)" /><use
       id="use112"
       inkscape:spray-origin="#rect41"
       xlink:href="#rect41"
       transform="rotate(24.08486,-7.1875943,48.124088)" /><use
       id="use113"
       inkscape:spray-origin="#rect41"
       xlink:href="#rect41"
       transform="rotate(29.172406,-29.087566,94.667369)" /><use
       id="use114"
       inkscape:spray-origin="#rect41"
       xlink:href="#rect41"
       transform="rotate(-54.372815,21.870105,-14.242281)" /><use
       id="use115"
       inkscape:spray-origin="#rect41"
       xlink:href="#rect41"
       transform="rotate(-121.01183,8.0474087,7.8049539)" /><use
       id="use116"
       inkscape:spray-origin="#rect41"
       xlink:href="#rect41"
       transform="rotate(-163.95086,-0.71146873,0.81109829)" /><use
       id="use117"
       inkscape:spray-origin="#rect41"
       xlink:href="#rect41"
       transform="rotate(156.96442,-1.4753833,7.3306322)" /><use
       id="use118"
       inkscape:spray-origin="#rect41"
       xlink:href="#rect41"
       transform="rotate(-55.629943,2.7765412,-1.7625982)" /><use
       id="use119"
       inkscape:spray-origin="#rect41"
       xlink:href="#rect41"
       transform="rotate(-128.98336,-3.1764768,2.0906498)" /></g></svg>
